<svg xmlns="http://www.w3.org/2000/svg" viewBox="0 0 400 400" fill="none">
  <defs>
    <path id="ip-topArc" d="M 64,200 A 136,136 0 0 1 336,200" />
    <path id="ip-botArc" d="M 72,200 A 128,128 0 0 0 328,200" />
  </defs>

  <rect width="400" height="400" rx="64" fill="#f7f4ee"/>

  <!-- Badge rings -->
  <circle cx="200" cy="200" r="186" stroke="#122149" stroke-width="6" fill="none"/>
  <circle cx="200" cy="200" r="170" stroke="#122149" stroke-width="2.5" fill="none"/>

  <!-- Curved wordmark -->
  <text font-family="'Inter','Helvetica',sans-serif" font-weight="800" font-size="32" letter-spacing="1.5" fill="#122149">
    <textPath href="#ip-topArc" startOffset="50%" text-anchor="middle">GABER PONTEGGI</textPath>
  </text>
  <text font-family="'Inter','Helvetica',sans-serif" font-weight="700" font-size="21" letter-spacing="6" fill="#122149">
    <textPath href="#ip-botArc" startOffset="50%" text-anchor="middle">NOLEGGIO · MONTAGGIO</textPath>
  </text>

  <!-- Accent side dots -->
  <circle cx="42" cy="200" r="5" fill="#f6a91d"/>
  <circle cx="358" cy="200" r="5" fill="#f6a91d"/>

  <!-- Scaffolding tower frame -->
  <g stroke="#122149" stroke-width="9" stroke-linecap="round" fill="none">
    <line x1="158" y1="120" x2="158" y2="280"/>
    <line x1="242" y1="120" x2="242" y2="280"/>
    <line x1="158" y1="120" x2="242" y2="120"/>
    <line x1="158" y1="173" x2="242" y2="173"/>
    <line x1="158" y1="227" x2="242" y2="227"/>
    <line x1="158" y1="280" x2="242" y2="280"/>
  </g>
  <g stroke="#122149" stroke-width="5" stroke-linecap="round" fill="none">
    <line x1="158" y1="120" x2="242" y2="173"/>
    <line x1="242" y1="173" x2="158" y2="227"/>
    <line x1="158" y1="227" x2="242" y2="280"/>
  </g>

  <!-- Bold "G" monogram -->
  <text x="200" y="200" text-anchor="middle" dominant-baseline="central"
        font-family="'Inter','Helvetica',sans-serif" font-weight="800" font-size="150" fill="#f6a91d">G</text>
</svg>
